<svg width="85" height="85" viewBox="0 0 85 85" fill="none" xmlns="http://www.w3.org/2000/svg">
<path d="M83.2311 40.6868C61.8561 34.7845 57.4111 30.3348 51.5081 8.96383C51.3206 8.28414 50.7034 7.81543 50.0003 7.81543C49.2972 7.81543 48.68 8.28418 48.4925 8.96383C42.5902 30.3388 38.1405 34.7838 16.7695 40.6868C16.0898 40.8743 15.625 41.4915 15.625 42.1946C15.625 42.8977 16.0938 43.5149 16.7695 43.7024C38.1445 49.6047 42.5895 54.0544 48.4925 75.4254C48.68 76.1051 49.2972 76.5738 50.0003 76.5738C50.7034 76.5738 51.3206 76.1051 51.5081 75.4254C57.4104 54.0504 61.8601 49.6054 83.2311 43.7024C83.9108 43.5149 84.3756 42.8977 84.3756 42.1946C84.3756 41.4915 83.9069 40.8743 83.2311 40.6868Z" fill="black"/>
<path d="M15.6795 33.234C15.867 33.9137 16.4842 34.3824 17.1873 34.3824C17.8904 34.3824 18.5076 33.9137 18.6951 33.234C21.4295 23.3356 23.3318 21.433 33.2301 18.699C33.9098 18.5115 34.3746 17.8943 34.3746 17.1912C34.3746 16.4881 33.9058 15.8709 33.2301 15.6834C23.3317 12.949 21.4291 11.0506 18.6951 1.1484C18.5076 0.46871 17.8904 0 17.1873 0C16.4842 0 15.867 0.46875 15.6795 1.1484C12.9451 11.0468 11.0428 12.9494 1.1445 15.6834C0.46481 15.8709 0 16.4881 0 17.1912C0 17.8943 0.46875 18.5115 1.1445 18.699C11.0429 21.4334 12.9455 23.3318 15.6795 33.234Z" fill="black"/>
<path d="M35.5734 68.0308C27.2687 65.7378 25.6749 64.1441 23.3823 55.8398C23.1948 55.1601 22.5777 54.6914 21.8745 54.6914C21.1714 54.6914 20.5543 55.1602 20.3668 55.8398C18.0738 64.1445 16.4801 65.7382 8.17575 68.0308C7.49606 68.2183 7.03125 68.8355 7.03125 69.5386C7.03125 70.2417 7.5 70.8589 8.17575 71.0464C16.4804 73.3394 18.0742 74.9331 20.3668 83.2374C20.5543 83.9171 21.1714 84.3858 21.8745 84.3858C22.5777 84.3858 23.1948 83.9171 23.3823 83.2374C25.6753 74.9327 27.2691 73.339 35.5734 71.0464C36.253 70.8589 36.7179 70.2417 36.7179 69.5386C36.7179 68.8355 36.2491 68.2183 35.5734 68.0308Z" fill="black"/>
</svg>
